<?xml version="1.0" standalone="no"?>
<!DOCTYPE svg PUBLIC "-//W3C//DTD SVG 1.1//EN" "http://www.w3.org/Graphics/SVG/1.1/DTD/svg11.dtd" >
<svg>
<metadata>
Created by FontForge 20090622 at Wed Mar  9 03:08:57 2016
 By deploy user
Copyright (c) 2000, 2006 Nick Curtis. All Rights Reserved. Distributed under the 1001Fonts Free For Commercial Use License (FFC) http://www.1001fonts.com/licenses/ffc.html - PayPal donations in any amount may be made at nicksfonts.com.
</metadata>
<defs>
<font id="SelznickRemixNF" horiz-adv-x="171" >
  <font-face 
    font-family="Selznick Remix NF"
    font-weight="400"
    font-stretch="normal"
    units-per-em="1000"
    panose-1="2 1 7 6 2 2 4 2 12 4"
    ascent="797"
    descent="-203"
    x-height="564"
    cap-height="767"
    bbox="-48 -197 2142 976"
    underline-thickness="50"
    underline-position="-30"
    unicode-range="U+0020-U+2212"
  />
<missing-glyph horiz-adv-x="222" 
 />
    <glyph glyph-name=".notdef" horiz-adv-x="222" 
 />
    <glyph glyph-name=".null" horiz-adv-x="0" 
 />
    <glyph glyph-name="nonmarkingreturn" horiz-adv-x="333" 
 />
    <glyph glyph-name="space" unicode=" " horiz-adv-x="222" 
 />
    <glyph glyph-name="exclam" unicode="!" horiz-adv-x="212" 
d="M188 71q0 -34 -24 -57.5t-58 -23.5t-58 23.5t-24 57.5q0 35 24 58.5t58 23.5t58 -23.5t24 -58.5zM167 194h-123v573h123v-573z" />
    <glyph glyph-name="quotedbl" unicode="&#x22;" horiz-adv-x="283" 
d="M259 767l-27 -186h-70l-20 138q-4 -20 -11 -72l-9 -66h-70l-28 186h235z" />
    <glyph glyph-name="numbersign" unicode="#" horiz-adv-x="405" 
d="M24 351v80h103l40 167h84l-40 -167h46l40 167h84l-40 -167h40v-80h-59l-12 -50h71v-80h-90l-53 -221h-84l53 221h-46l-53 -221h-84l53 221h-53v80h72l12 50h-84zM180 301h46l12 50h-46z" />
    <glyph glyph-name="dollar" unicode="$" horiz-adv-x="359" 
d="M335 639q-26 -7 -52 -17.5t-58.5 -26.5t-53 -38.5t-20.5 -46.5q0 -23 23 -51t50 -51.5t50 -64.5t23 -88q0 -53 -37 -102v-195h-125v100l-6 -4l-53 111l14 8q14 8 18.5 11l17.5 11.5t18.5 14l13.5 13.5t11.5 16t3.5 16q0 32 -23.5 63.5t-51 53.5t-51 57t-23.5 73
q0 51 33 101.5t80 78.5v115h123v-53l40 13z" />
    <glyph glyph-name="percent" unicode="%" horiz-adv-x="737" 
d="M335 411q0 -64 -45.5 -109.5t-109.5 -45.5q-63 0 -109.5 46t-46.5 109q0 64 46 110t110 46t109.5 -46t45.5 -110zM230 411q0 22 -14.5 36.5t-35.5 14.5t-35.5 -14.5t-14.5 -36.5q0 -20 15 -35t35 -15t35 15t15 35zM713 155q0 -64 -45 -110t-108 -46q-64 0 -110 46.5
t-46 109.5q0 64 46 109.5t110 45.5t108.5 -45.5t44.5 -109.5zM609 155q0 21 -14.5 36t-34.5 15q-22 0 -36 -15t-14 -36q0 -22 14 -36t36 -14q20 0 34.5 14.5t14.5 35.5zM253 0h-117l351 567h116z" />
    <glyph glyph-name="ampersand" unicode="&#x26;" horiz-adv-x="887" 
d="M863 398q-75 -127 -194 -127q-9 0 -29 2q-9 -121 -98 -203t-210 -82q-128 0 -218 90t-90 217q0 97 56 177t147 113l-120 171h356v-123h-119l107 -153h-119q-76 0 -130.5 -54t-54.5 -131t54.5 -131t130.5 -54q77 0 130.5 53t53.5 130v4q-10 6 -48.5 12.5t-54.5 6.5
q-77 0 -115 -64l-106 62q75 129 202 129q46 0 132 -22.5t125 -22.5q69 0 106 62z" />
    <glyph glyph-name="quotesingle" unicode="'" horiz-adv-x="173" 
d="M149 767l-27 -186h-70l-28 186h125z" />
    <glyph glyph-name="parenleft" unicode="(" horiz-adv-x="309" 
d="M285 -3l-84 -90q-86 81 -131.5 197t-45.5 240t45 240t132 196l84 -90q-69 -63 -103.5 -154.5t-34.5 -191.5q0 -99 35 -191.5t103 -154.5v-1z" />
    <glyph glyph-name="parenright" unicode=")" horiz-adv-x="309" 
d="M24 -3q68 63 103 155.5t35 191.5q0 100 -34.5 191.5t-103.5 154.5l84 90q87 -80 132 -196t45 -240t-45.5 -240t-131.5 -196z" />
    <glyph glyph-name="asterisk" unicode="*" horiz-adv-x="341" 
d="M317 570h-76l38 -65l-71 -41l-38 65l-37 -65l-71 41l37 65h-75v82h75l-37 65l71 41l37 -65l38 66l71 -41l-37 -66h75v-82z" />
    <glyph glyph-name="plus" unicode="+" horiz-adv-x="318" 
d="M220 74h-123v74h-73v123h73v73h123v-73h74v-123h-74v-74z" />
    <glyph glyph-name="comma" unicode="," horiz-adv-x="247" 
d="M125 -102l-101 71l43 61q-7 14 -7 33q0 32 23 57t55 25q36 0 60.5 -23.5t24.5 -59.5q0 -23 -15 -45z" />
    <glyph glyph-name="hyphen" unicode="-" horiz-adv-x="233" 
d="M209 301h-185v123h185v-123z" />
    <glyph glyph-name="period" unicode="." horiz-adv-x="212" 
d="M188 71q0 -34 -24 -57.5t-58 -23.5t-58 23.5t-24 57.5q0 35 24 58.5t58 23.5t58 -23.5t24 -58.5z" />
    <glyph glyph-name="slash" unicode="/" horiz-adv-x="281" 
d="M114 0h-93l159 767h93z" />
    <glyph glyph-name="zero" unicode="0" horiz-adv-x="346" 
d="M322 136q0 -62 -43.5 -105t-105.5 -43t-105.5 43.5t-43.5 104.5v299q0 61 44 105t105 44q62 0 105.5 -43.5t43.5 -105.5v-299zM199 136v299q0 11 -7.5 18.5t-18.5 7.5t-18.5 -7.5t-7.5 -18.5v-299q0 -10 7.5 -18t18.5 -8t18.5 8t7.5 18z" />
    <glyph glyph-name="one" unicode="1" horiz-adv-x="202" 
d="M178 0h-124v441h-30v124h154v-565z" />
    <glyph glyph-name="two" unicode="2" horiz-adv-x="418" 
d="M394 0h-370l212 250q30 36 30 81q0 51 -36.5 87.5t-87.5 36.5v123q102 0 175 -72.5t73 -174.5q0 -34 -6 -61t-23.5 -55t-29 -42.5t-41.5 -49.5h104v-123z" />
    <glyph glyph-name="three" unicode="3" horiz-adv-x="430" 
d="M406 129q0 -111 -78 -188.5t-189 -77.5v122q59 1 101.5 43t42.5 101q0 58 -42.5 101t-101.5 43h-115l113 168h-85v124h315l-126 -189q75 -32 120 -99t45 -148z" />
    <glyph glyph-name="four" unicode="4" horiz-adv-x="442" 
d="M418 0h-44v-114h-124v114h-226l199 583l117 -39l-144 -421h54v87h124v-87h44v-123z" />
    <glyph glyph-name="five" unicode="5" horiz-adv-x="403" 
d="M379 128q0 -111 -78 -188.5t-189 -77.5v122q60 1 102 42.5t42 101.5q0 59 -42.5 101.5t-101.5 42.5h-88l110 293h208v-124h-124l-22 -60q81 -26 132 -96.5t51 -156.5z" />
    <glyph glyph-name="six" unicode="6" horiz-adv-x="515" 
d="M491 279q0 -69 -26 -135t-81 -112.5t-126 -46.5q-74 0 -129 48t-80 114.5t-25 138.5q0 101 57 186l222 326l102 -70l-108 -157q91 -19 142.5 -106t51.5 -186zM368 279q0 35 -11 73t-37 69t-62 31q-51 0 -80.5 -58t-29.5 -115q0 -60 28.5 -116t81.5 -56q51 0 80.5 57.5
t29.5 114.5z" />
    <glyph glyph-name="seven" unicode="7" horiz-adv-x="344" 
d="M320 570l-80 -297h52v-123h-85l-64 -238l-119 32l55 206h-33v123h66l47 173h-103v124h264z" />
    <glyph glyph-name="eight" unicode="8" horiz-adv-x="498" 
d="M474 285q0 -68 -25 -131.5t-78 -108t-122 -44.5t-122 44.5t-78 108t-25 131.5q0 66 26 131t73 106q-29 42 -29 90q0 64 45.5 109t109.5 45t109.5 -45t45.5 -109q0 -50 -29 -90q47 -41 73 -106t26 -131zM351 285q0 32 -10 67.5t-34.5 64.5t-57.5 29t-57.5 -29t-34.5 -64.5
t-10 -67.5t10 -67.5t34.5 -64.5t57.5 -29t57.5 29t34.5 64.5t10 67.5zM280 612q0 13 -9 22t-22 9t-22.5 -9t-9.5 -22t9.5 -22.5t22.5 -9.5t22 9.5t9 22.5z" />
    <glyph glyph-name="nine" unicode="9" horiz-adv-x="496" 
d="M472 354q0 -105 -54 -184l-210 -307l-101 69l99 145q-85 20 -133.5 101.5t-48.5 175.5q0 106 61.5 194.5t162.5 88.5t162.5 -88.5t61.5 -194.5zM349 354q0 54 -26.5 106.5t-74.5 52.5q-33 0 -57 -29t-33.5 -63.5t-9.5 -66.5q0 -54 26 -106.5t74 -52.5q47 0 74 53t27 106z
" />
    <glyph glyph-name="colon" unicode=":" horiz-adv-x="212" 
d="M188 71q0 -34 -24 -57.5t-58 -23.5t-58 23.5t-24 57.5q0 35 24 58.5t58 23.5t58 -23.5t24 -58.5zM188 311q0 -35 -24 -58.5t-58 -23.5t-58 23.5t-24 58.5t24 58.5t58 23.5t58 -23.5t24 -58.5z" />
    <glyph glyph-name="semicolon" unicode=";" horiz-adv-x="250" 
d="M125 -102l-101 71l43 61q-7 14 -7 33q0 32 23 57t55 25q36 0 60.5 -23.5t24.5 -59.5q0 -23 -15 -45zM226 311q0 -35 -24 -58.5t-58 -23.5t-58 23.5t-24 58.5t24 58.5t58 23.5t58 -23.5t24 -58.5z" />
    <glyph glyph-name="less" unicode="&#x3c;" horiz-adv-x="515" 
d="M491 75l-467 288l467 287v-144l-233 -143l233 -144v-144z" />
    <glyph glyph-name="equal" unicode="=" horiz-adv-x="318" 
d="M294 351v-123h-270v123h270zM294 191v-123h-270v123h270z" />
    <glyph glyph-name="greater" unicode="&#x3e;" horiz-adv-x="515" 
d="M24 75v144l233 144l-233 143v144l467 -287z" />
    <glyph glyph-name="question" unicode="?" horiz-adv-x="347" 
d="M229 63q0 -34 -24 -57t-58 -23t-57.5 23t-23.5 57t23.5 58t57.5 24q35 0 58.5 -23.5t23.5 -58.5zM323 513q0 -52 -30 -108l-85 -158v-70h-123v85q0 16 7 29l92 172q16 28 16 66q0 52 -40 85t-92 33q-10 0 -19 -3l-25 120q19 6 52 6q106 0 176.5 -75.5t70.5 -181.5z" />
    <glyph glyph-name="at" unicode="@" horiz-adv-x="849" 
d="M825 369q0 -95 -64 -208h-340q-42 0 -72.5 30.5t-30.5 72.5v149q0 39 28.5 71.5t66.5 32.5q9 0 13 -1q-27 54 -70 75v89q75 -26 121.5 -91.5t46.5 -146.5v-199h189q30 63 30 135q0 132 -93 225.5t-225 93.5t-225.5 -93.5t-93.5 -225.5q0 -131 94 -224.5t225 -93.5
q104 0 189 62l49 -65q-108 -78 -238 -78q-166 0 -283.5 116.5t-117.5 282.5t117.5 283.5t283.5 117.5q170 0 284 -119.5t116 -290.5zM442 243v171q0 8 -6.5 14t-14.5 6q-9 0 -15 -6t-6 -15v-149q0 -8 6.5 -14.5t14.5 -6.5h21z" />
    <glyph glyph-name="A" unicode="A" horiz-adv-x="418" 
d="M394 0h-123v148h-54v-148h-123v148h-70v123h70v283q0 137 150 232q150 -92 150 -232v-554zM271 271v283q0 48 -27 78q-27 -33 -27 -78v-283h54z" />
    <glyph glyph-name="B" unicode="B" horiz-adv-x="406" 
d="M382 451q0 -121 -78 -208q25 -17 39.5 -46.5t14.5 -61.5q0 -54 -40 -94.5t-96 -40.5h-147v148h-51v123h51v501q129 -6 218 -99t89 -222zM235 135q0 5 -4 9t-8 4h-24v-25h24q5 0 8.5 3.5t3.5 8.5zM259 451q0 84 -60 142v-284q60 60 60 142z" />
    <glyph glyph-name="C" unicode="C" horiz-adv-x="441" 
d="M417 -11q-162 1 -277.5 116t-115.5 277t115.5 277.5t277.5 115.5v-123q-112 0 -191 -79t-79 -191t79 -191t191 -79v-123z" />
    <glyph glyph-name="D" unicode="D" horiz-adv-x="364" 
d="M340 382q0 -140 -89.5 -248.5t-226.5 -135.5v770q138 -29 227 -137.5t89 -248.5zM217 382q0 100 -70 180v-360q70 80 70 180z" />
    <glyph glyph-name="E" unicode="E" horiz-adv-x="350" 
d="M326 0h-119q-52 0 -88.5 37t-36.5 89v23h-58v123h58v495h244v-123h-121v-372h119v-123h-119v-23q0 -2 2 -2h119v-124z" />
    <glyph glyph-name="F" unicode="F" horiz-adv-x="350" 
d="M326 644h-121v-373h119v-123h-119v-148h-123v148h-58v123h58v496h244v-123z" />
    <glyph glyph-name="G" unicode="G" horiz-adv-x="515" 
d="M491 637q-34 10 -73 10q-112 0 -191 -79t-79 -191q0 -94 58.5 -168t149.5 -95v368h123v-498h-62q-161 0 -277 116t-116 277q0 163 115.5 278t278.5 115q39 0 73 -7v-126z" />
    <glyph glyph-name="H" unicode="H" horiz-adv-x="401" 
d="M377 0h-124v148h-49v-148h-123v148h-57v123h57v496h123v-496h49v496h124v-767z" />
    <glyph glyph-name="I" unicode="I" 
d="M147 0h-123v767h123v-767z" />
    <glyph glyph-name="J" unicode="J" horiz-adv-x="270" 
d="M246 100q0 -91 -65 -156t-157 -65v123q41 0 70 29t29 69v667h123v-667z" />
    <glyph glyph-name="K" unicode="K" horiz-adv-x="436" 
d="M412 0h-123q0 44 -24.5 81.5t-65.5 54.5v-136h-123v148h-52v123h52v496h123v-475q45 46 45 116v359h123v-359q0 -105 -68 -189q53 -39 83 -96.5t30 -122.5z" />
    <glyph glyph-name="L" unicode="L" horiz-adv-x="293" 
d="M269 0h-119q-52 0 -89 37t-37 89v641h124v-641q0 -2 2 -2h119v-124z" />
    <glyph glyph-name="M" unicode="M" horiz-adv-x="507" 
d="M483 0h-123v586q0 29 -22 51q-23 -23 -23 -51v-586h-123v586q0 29 -22 51q-23 -23 -23 -51v-586h-123v586q0 68 38.5 114.5t107.5 82.5q55 -31 84 -58q29 27 84 58q145 -76 145 -197v-586z" />
    <glyph glyph-name="N" unicode="N" horiz-adv-x="350" 
d="M326 0h-123v423q0 91 -56 150v-573h-123v783q121 -54 179 -102v86h123v-767z" />
    <glyph glyph-name="O" unicode="O" horiz-adv-x="835" 
d="M811 377q0 -162 -115.5 -277t-277.5 -115t-278 115t-116 277q0 163 115.5 278t278.5 115q162 0 277.5 -115.5t115.5 -277.5zM688 377q0 111 -79.5 190.5t-190.5 79.5q-112 0 -191 -79t-79 -191t79 -191t191 -79q111 0 190.5 79.5t79.5 190.5z" />
    <glyph glyph-name="P" unicode="P" horiz-adv-x="355" 
d="M331 451q0 -92 -50 -170.5t-133 -118.5v-162h-124v772q129 -6 218 -99t89 -222zM208 451q0 83 -60 141v-282q60 58 60 141z" />
    <glyph glyph-name="Q" unicode="Q" horiz-adv-x="849" 
d="M825 -57q-78 -78 -164 -78q-51 0 -111.5 29.5l-116 58.5t-93.5 29q-45 0 -83 -38l-87 86l25 24q-80 55 -125.5 140.5t-45.5 182.5q0 162 115.5 277.5t277.5 115.5q163 0 278.5 -115t115.5 -278q0 -117 -64.5 -215t-172.5 -145q47 -22 84 -22q45 0 80 35zM687 377
q0 112 -79 191t-191 79q-111 0 -190.5 -79.5t-79.5 -190.5t79.5 -190.5t190.5 -79.5q112 0 191 79t79 191z" />
    <glyph glyph-name="R" unicode="R" horiz-adv-x="436" 
d="M412 0h-123q0 46 -27 84t-70 55v-139h-123v148h-45v123h45v501q134 0 223 -95.5t89 -225.5t-92 -224q57 -39 90 -98.5t33 -128.5zM258 451q0 87 -66 147v-294q66 60 66 147z" />
    <glyph glyph-name="S" unicode="S" horiz-adv-x="274" 
d="M250 699q-48 -33 -76 -87t-28 -113q0 -42 24 -99l12 -26t14 -31.5t11 -28.5q24 -74 24 -133q0 -128 -91 -227l-90 81q58 66 58 146q0 57 -42 154t-42 167q0 87 43 168t114 130z" />
    <glyph glyph-name="T" unicode="T" horiz-adv-x="292" 
d="M268 644h-60v-644h-124v644h-60v123h244v-123z" />
    <glyph glyph-name="U" unicode="U" horiz-adv-x="346" 
d="M322 125q0 -62 -43.5 -105t-105.5 -43t-105.5 43.5t-43.5 104.5v642h123v-642q0 -11 7.5 -18.5t18.5 -7.5t18.5 7.5t7.5 18.5v642h123v-642z" />
    <glyph glyph-name="V" unicode="V" horiz-adv-x="354" 
d="M330 310q0 -128 -89 -221t-217 -99v777h123v-598q38 37 49 76t11 99v423h123v-457z" />
    <glyph glyph-name="W" unicode="W" horiz-adv-x="507" 
d="M483 181q0 -123 -145 -196q-52 28 -84 57q-32 -29 -84 -57q-146 74 -146 196v586h123v-586q0 -27 23 -52q22 24 22 52v586h123v-586q0 -27 23 -52q22 24 22 52v586h123v-586z" />
    <glyph glyph-name="X" unicode="X" horiz-adv-x="350" 
d="M326 370q0 -76 -46 -143q44 -44 44 -105v-122h-123v122q0 11 -7.5 18.5t-18.5 7.5t-18.5 -8t-7.5 -18v-122h-123v122q0 62 43 105q-45 67 -45 143v397h123v-397q0 -41 28 -79q27 33 27 79v397h124v-397z" />
    <glyph glyph-name="Y" unicode="Y" horiz-adv-x="350" 
d="M326 370q0 -113 -89 -191v-179h-123v178q-42 35 -66 86t-24 106v397h123v-397q0 -41 28 -79q27 33 27 79v397h124v-397z" />
    <glyph glyph-name="Z" unicode="Z" horiz-adv-x="357" 
d="M333 767l-153 -643h108v-124h-264l153 644h-102v123h258z" />
    <glyph glyph-name="bracketleft" unicode="[" horiz-adv-x="233" 
d="M209 644h-62v-621h62v-123h-185v867h185v-123z" />
    <glyph glyph-name="backslash" unicode="\" horiz-adv-x="281" 
d="M273 0h-93l-159 767h93z" />
    <glyph glyph-name="bracketright" unicode="]" horiz-adv-x="233" 
d="M86 644h-62v123h185v-867h-185v123h62v621z" />
    <glyph glyph-name="underscore" unicode="_" horiz-adv-x="500" 
d="M500 -53h-500v43h500v-43z" />
    <glyph glyph-name="grave" unicode="`" horiz-adv-x="242" 
d="M218 675l-14 -81l-180 32l14 80z" />
    <glyph glyph-name="a" unicode="a" horiz-adv-x="358" 
d="M334 0h-180q-53 0 -91.5 38t-38.5 91v161q0 53 38.5 90.5t91.5 37.5q-23 36 -59 55v132q93 -26 150.5 -103.5t57.5 -174.5v-204h31v-123zM180 123v173h-27q-5 0 -5 -6v-161q0 -6 6 -6h26z" />
    <glyph glyph-name="b" unicode="b" horiz-adv-x="361" 
d="M337 294q0 -129 -89 -211.5t-224 -82.5v767h123v-198q86 -33 138 -108.5t52 -166.5zM213 294q0 82 -66 135v-271q66 53 66 136z" />
    <glyph glyph-name="c" unicode="c" horiz-adv-x="340" 
d="M316 -12q-121 2 -206.5 88t-85.5 207q0 122 85.5 208.5t206.5 87.5v-124q-71 -1 -120 -51t-49 -121q0 -70 49 -120t120 -52v-123z" />
    <glyph glyph-name="d" unicode="d" horiz-adv-x="361" 
d="M337 -1q-133 0 -223 84t-90 211q0 91 52 166.5t137 108.5v198h124v-768zM213 158v271q-66 -53 -66 -135q0 -83 66 -136z" />
    <glyph glyph-name="e" unicode="e" horiz-adv-x="361" 
d="M337 278q0 -53 -38 -91t-91 -38h-27v-15q0 -11 11 -11h130v-123h-130q-62 0 -98 43t-36 106h-34v123h34v166q0 53 38 91.5t91 38.5h21q53 0 91 -38.5t38 -91.5v-160zM214 278v160q0 6 -6 6h-21q-6 0 -6 -6v-166h27q6 0 6 6z" />
    <glyph glyph-name="f" unicode="f" horiz-adv-x="273" 
d="M249 148h-57v-148h-123v148h-45v123h45v361q0 56 39.5 95.5t94.5 39.5h36v-124q-47 0 -47 -36v-336h57v-123z" />
    <glyph glyph-name="g" unicode="g" horiz-adv-x="335" 
d="M311 -17q0 -55 -39.5 -94.5t-94.5 -39.5h-76v123h76q11 0 11 20v13q-77 36 -120.5 106t-43.5 156q0 133 76 212t211 108v-604zM188 154v238q-40 -59 -40 -125q0 -28 11 -64.5t29 -48.5z" />
    <glyph glyph-name="h" unicode="h" horiz-adv-x="334" 
d="M310 0h-123v354q0 50 -40 79v-433h-123v767h123v-198q71 -20 117 -80.5t46 -134.5v-354z" />
    <glyph glyph-name="i" unicode="i" horiz-adv-x="223" 
d="M173 0h-123v565h123v-565zM199 679l-88 -88l-87 88l87 88z" />
    <glyph glyph-name="j" unicode="j" horiz-adv-x="298" 
d="M248 69q0 -93 -65.5 -158t-158.5 -65v122q41 1 71 30.5t30 70.5v496h123v-496zM274 679l-88 -88l-88 88l88 88z" />
    <glyph glyph-name="k" unicode="k" horiz-adv-x="432" 
d="M408 0h-123q0 45 -25 82.5t-66 54.5v-137h-124v148h-46v123h46v496h124v-475q39 31 39 80v193h123v-193q0 -89 -61 -153q53 -39 83 -96.5t30 -122.5z" />
    <glyph glyph-name="l" unicode="l" 
d="M147 0h-123v767h123v-767z" />
    <glyph glyph-name="m" unicode="m" horiz-adv-x="482" 
d="M458 0h-123v405q0 26 -16 43q-17 -23 -17 -43v-405h-123v405q0 21 -16 43q-16 -19 -16 -43v-405h-123v405q0 65 36.5 109.5t102.5 80.5q61 -34 78 -51q17 17 78 51q139 -75 139 -190v-405z" />
    <glyph glyph-name="n" unicode="n" horiz-adv-x="334" 
d="M310 0h-123v363q0 50 -40 79v-442h-123v587h62q93 0 158.5 -66t65.5 -158v-363z" />
    <glyph glyph-name="o" unicode="o" horiz-adv-x="638" 
d="M614 283q0 -122 -86.5 -208t-208.5 -86t-208.5 86t-86.5 208t86.5 209t208.5 87q123 0 209 -86.5t86 -209.5zM491 283q0 71 -50.5 121.5t-121.5 50.5t-121.5 -50.5t-50.5 -121.5t50.5 -121.5t121.5 -50.5t121.5 50.5t50.5 121.5z" />
    <glyph glyph-name="p" unicode="p" horiz-adv-x="361" 
d="M337 274q0 -91 -52.5 -166.5t-137.5 -107.5v-151h-123v720q138 0 225.5 -83.5t87.5 -211.5zM213 274q0 83 -66 136v-271q66 53 66 135z" />
    <glyph glyph-name="q" unicode="q" horiz-adv-x="361" 
d="M337 -151h-123v150q-85 33 -137.5 109t-52.5 166q0 128 90 211.5t223 83.5v-720zM214 139v271q-66 -53 -66 -136q0 -82 66 -135z" />
    <glyph glyph-name="r" unicode="r" horiz-adv-x="272" 
d="M248 449q-41 0 -71 -29.5t-30 -70.5v-349h-123v349q0 92 66 158t158 66v-124z" />
    <glyph glyph-name="s" unicode="s" horiz-adv-x="251" 
d="M227 501q-35 -21 -57.5 -56.5t-22.5 -74.5q0 -29 17.5 -65.5t35.5 -80t18 -87.5q0 -109 -81 -187l-86 87q44 41 44 96q0 38 -35.5 108.5t-35.5 125.5q0 72 38.5 137t101.5 103z" />
    <glyph glyph-name="t" unicode="t" horiz-adv-x="250" 
d="M226 441h-44v-295q0 -16 11 -27t27 -11v-123q-66 1 -113.5 48t-47.5 113v295h-35v124h35v87h123v-87h44v-124z" />
    <glyph glyph-name="u" unicode="u" horiz-adv-x="333" 
d="M309 127q0 -59 -41.5 -100.5t-100.5 -41.5t-101 42t-42 100v438h123v-438q0 -8 6 -14t14 -6t13.5 6t5.5 14v438h123v-438z" />
    <glyph glyph-name="v" unicode="v" horiz-adv-x="334" 
d="M310 0h-62q-92 0 -158 66t-66 158v340h123v-340q0 -51 40 -80v421h123v-565z" />
    <glyph glyph-name="w" unicode="w" horiz-adv-x="482" 
d="M458 170q0 -115 -139 -189q-54 26 -78 49q-24 -23 -78 -49q-139 74 -139 189v394h123v-394q0 -24 16 -43q17 20 17 43v394h123v-394q0 -26 16 -43q16 17 16 43v394h123v-394z" />
    <glyph glyph-name="x" unicode="x" horiz-adv-x="333" 
d="M309 0h-123v111q0 19 -19 19q-8 0 -14 -5.5t-6 -13.5v-111h-123v113q0 43 25 77q-25 36 -25 78v297h123v-295q0 -8 6 -13.5t14 -5.5q19 0 19 19v295h123v-297q0 -41 -24 -78q24 -35 24 -77v-113z" />
    <glyph glyph-name="y" unicode="y" horiz-adv-x="335" 
d="M311 -17q0 -55 -39.5 -94.5t-94.5 -39.5h-86v123h83q15 0 15 22q0 4 -0.5 10t-0.5 7q-76 35 -120 106t-44 155v293h124v-293q0 -64 40 -110v403h123v-582z" />
    <glyph glyph-name="z" unicode="z" horiz-adv-x="369" 
d="M345 565l-150 -442h130v-123h-301l150 441h-104v124h275z" />
    <glyph glyph-name="braceleft" unicode="{" horiz-adv-x="276" 
d="M252 679q-39 -16 -64.5 -45.5t-25.5 -61.5q0 -23 20 -52.5t40 -65t20 -71.5q0 -45 -24 -81q24 -38 24 -83q0 -36 -20 -71t-40 -65t-20 -53q0 -32 25.5 -61t64.5 -45l-71 -86q-71 30 -114 82.5t-43 111.5q0 45 40 102t40 88q0 43 -51 80q51 33 51 78q0 27 -20 57.5l-40 64
t-20 68.5q0 59 43 112t114 83z" />
    <glyph glyph-name="braceright" unicode="}" horiz-adv-x="276" 
d="M24 679l71 86q71 -30 114 -83t43 -112q0 -35 -20 -68.5l-40 -64t-20 -57.5q0 -45 51 -78q-51 -37 -51 -80q0 -31 40 -88t40 -102q0 -59 -43 -111.5t-114 -82.5l-71 86q39 16 64.5 45t25.5 61q0 23 -20 53t-40 65t-20 71q0 45 24 83q-24 36 -24 81q0 36 20 71.5t40 65
t20 52.5q0 32 -25.5 61.5t-64.5 45.5z" />
    <glyph glyph-name="exclamdown" unicode="&#xa1;" horiz-adv-x="212" 
d="M45 382h123v-573h-123v573zM24 505q0 35 24 58.5t58 23.5t58 -23.5t24 -58.5t-24 -58.5t-58 -23.5t-58 23.5t-24 58.5z" />
    <glyph glyph-name="cent" unicode="&#xa2;" horiz-adv-x="394" 
d="M370 92h-59v-92h-123v119q-75 36 -119.5 105t-44.5 152q0 82 44.5 152t119.5 105v134h123v-106h59v-124h-59v-322h59v-123zM188 270v213q-41 -47 -41 -107t41 -106z" />
    <glyph glyph-name="sterling" unicode="&#xa3;" horiz-adv-x="365" 
d="M341 678q-79 -10 -131.5 -69.5t-52.5 -139.5q0 -43 27 -102.5t32 -83.5h104v-82h-102q-6 -42 -25 -76q7 -3 19 -11q35 -24 82 -24q16 0 24 2l17 -122q-15 -2 -45 -2q-39 0 -81 13q-12 3 -50.5 23t-51.5 20q-16 0 -40 -10l-43 115q50 18 68 72h-60v82h54l-18.5 45.5
t-18 45.5t-10.5 41t-5 54q0 126 83 220.5t208 110.5z" />
    <glyph glyph-name="currency" unicode="&#xa4;" horiz-adv-x="464" 
d="M440 1q-138 0 -233.5 76t-126.5 211h-56l21 82h26v17h-44l21 82h32q30 135 125.5 211t233.5 76l-33 -125q-72 -8 -125 -50.5t-75 -111.5h158l-22 -82h-151v-17h147l-21 -82h-111q27 -79 89 -121.5t145 -42.5v-123z" />
    <glyph glyph-name="yen" unicode="&#xa5;" horiz-adv-x="469" 
d="M445 288h-76q-22 -66 -73 -108v-180h-123v180q-49 43 -73 108h-76v82h62v17h-62v82h62v298h123v-400q0 -42 26 -74q25 37 25 74v400h123v-298h62v-82h-62v-17h62v-82z" />
    <glyph glyph-name="section" unicode="&#xa7;" horiz-adv-x="2170" 
d="M27 750h128v-750h-128v750zM2020 750h122v-750h-122v750zM1249 468q15 40 40.5 74t60 58.5t76 38t86.5 13.5t86.5 -13.5t76 -38t60 -58.5t40.5 -74h123q-12 50 -36.5 94.5t-59 81t-77 63.5t-91.5 43h-244q-49 -16 -91.5 -43t-77 -63.5t-59 -81t-36.5 -94.5h123zM1775 276
q-15 -40 -40.5 -74t-60 -58.5t-76 -38t-86.5 -13.5t-86.5 13.5t-76 38t-60 58.5t-40.5 74h-123q24 -96 89.5 -168.5t156.5 -107.5h281q91 35 156 107.5t89 168.5h-123zM923 276q-15 -40 -41 -74t-60.5 -58.5t-76 -38t-86.5 -13.5t-86 13.5t-75.5 38t-60.5 58.5t-41 74h-122
q12 -48 34.5 -90.5t54 -78t71.5 -63t85 -44.5h281q45 17 85 44.5t71.5 63t54 78t34.5 90.5h-122zM397 468q15 40 40.5 74t60 58.5t75.5 38t86 13.5t86.5 -13.5t76 -38t60 -58.5t40.5 -74h123q-12 50 -36.5 94.5t-59 81t-77 63.5t-90.5 43h-245q-48 -16 -90.5 -43t-77 -63.5
t-59 -81t-36.5 -94.5h123zM274 448h95v-30h-56v-33h50v-32h-51v-58h-38v153zM1006 448h44l71 -102v102h38v-153h-35l-81 104v-104h-37v153zM1457 448h115v-38h-32v-115h-51v116h-32v37zM662 456q-14 0 -29.5 -4t-28.5 -14t-22 -28t-9 -46t12.5 -44t27.5 -24q18 -10 41 -12
q24 2 43 12q17 8 30.5 25t13.5 49t-12.5 49t-27.5 25q-18 10 -39 12zM655 322q-12 2 -22 7q-8 5 -14.5 13.5t-6.5 24.5q0 15 4.5 25t11.5 16t15.5 8t15.5 2q11 -1 21 -6q8 -5 15 -15t7 -27q0 -18 -7.5 -27.5t-16.5 -14.5q-11 -5 -23 -6zM1790 333q8 -4 18.5 -7t23.5 -3
q10 0 17.5 3t7.5 12q0 10 -11 14l-26 8q-13 5 -24 14t-11 30q0 13 6 22t15.5 14.5t21.5 7.5t23 2q24 0 39 -6l-3 -31q-14 7 -33 7q-8 0 -17.5 -2t-9.5 -12q0 -9 11 -12l24 -8q14 -5 25 -13.5t11 -29.5q0 -29 -20 -39t-46 -10q-11 0 -23 1t-23 5z" />
    <glyph glyph-name="dieresis" unicode="&#xa8;" horiz-adv-x="278" 
d="M131 643l-53 -53l-54 53l54 53zM254 643l-54 -53l-53 53l53 53z" />
    <glyph glyph-name="copyright" unicode="&#xa9;" horiz-adv-x="788" 
d="M24 383q0 153 108.5 261.5t261.5 108.5t261.5 -108.5t108.5 -261.5t-108.5 -261.5t-261.5 -108.5t-261.5 108.5t-108.5 261.5zM58 383q0 -139 98 -237.5t238 -98.5t238 98.5t98 237.5t-98 237.5t-238 98.5t-238 -98.5t-98 -237.5zM471 93q-119 1 -203 85t-84 202
t84 202.5t203 84.5v-90q-82 0 -140 -57.5t-58 -139.5t58 -139.5t140 -57.5v-90z" />
    <glyph glyph-name="ordfeminine" unicode="&#xaa;" horiz-adv-x="344" 
d="M320 331h-188q-44 0 -76 32t-32 76v86q0 44 32 76.5t76 32.5h17q-7 13 -20 24v137q71 -21 114.5 -80.5t43.5 -134.5v-126h33v-123zM164 454v56h-17v-56h17z" />
    <glyph glyph-name="guillemotleft" unicode="&#xab;" horiz-adv-x="368" 
d="M214 240l-67 -47l-123 172l123 172l67 -47l-89 -125zM344 240l-67 -47l-123 172l123 172l67 -47l-89 -125z" />
    <glyph glyph-name="logicalnot" unicode="&#xac;" horiz-adv-x="318" 
d="M294 74h-123v74h-147v123h270v-197z" />
    <glyph glyph-name="registered" unicode="&#xae;" horiz-adv-x="445" 
d="M24 567q0 83 58 141t141 58q82 0 140 -58t58 -141t-57.5 -140.5t-140.5 -57.5t-141 58t-58 140zM66 567q0 -65 46 -110.5t111 -45.5t110.5 45.5t45.5 110.5t-45.5 111t-110.5 46t-111 -46t-46 -111zM296 437h-43q0 35 -34 49v-49h-44v53h-16v43h16v175q47 0 78.5 -34
t31.5 -79q0 -46 -32 -78q43 -30 43 -80zM242 595q0 31 -23 52v-103q23 21 23 51z" />
    <glyph glyph-name="macron" unicode="&#xaf;" horiz-adv-x="233" 
d="M209 583h-185v76h185v-76z" />
    <glyph glyph-name="degree" unicode="&#xb0;" horiz-adv-x="324" 
d="M300 623q0 -58 -40 -98t-98 -40q-57 0 -97.5 40.5t-40.5 97.5t40.5 98t97.5 41t97.5 -41t40.5 -98zM221 623q0 25 -17 42.5t-42 17.5q-24 0 -41.5 -18t-17.5 -42t17.5 -41.5t41.5 -17.5t41.5 17.5t17.5 41.5z" />
    <glyph glyph-name="plusminus" unicode="&#xb1;" horiz-adv-x="318" 
d="M294 123v-123h-270v123h73v25h-73v123h73v73h123v-73h74v-123h-74v-25h74z" />
    <glyph glyph-name="twosuperior" unicode="&#xb2;" horiz-adv-x="229" 
d="M205 485h-181l104 122q15 18 15 39q0 26 -17.5 43.5t-43.5 17.5v60q50 0 86 -35.5t36 -85.5q0 -21 -7.5 -40t-15 -29t-26.5 -32h50v-60z" />
    <glyph glyph-name="threesuperior" unicode="&#xb3;" horiz-adv-x="236" 
d="M212 552q0 -54 -38.5 -92t-92.5 -38v60q29 0 50 20.5t21 49.5q0 28 -21 49.5t-50 21.5h-57l55 82h-41v61h154l-61 -93q36 -15 58.5 -48t22.5 -73z" />
    <glyph glyph-name="acute" unicode="&#xb4;" horiz-adv-x="242" 
d="M218 625l-180 -32l-14 81l180 31z" />
    <glyph glyph-name="mu" unicode="&#xb5;" horiz-adv-x="334" 
d="M24 -111v676h123v-433q40 29 40 80v352h123v-352q0 -75 -46.5 -135t-116.5 -80v-108h-123z" />
    <glyph glyph-name="mu" unicode="&#x3bc;" horiz-adv-x="334" 
d="M24 -111v676h123v-433q40 29 40 80v352h123v-352q0 -75 -46.5 -135t-116.5 -80v-108h-123z" />
    <glyph glyph-name="paragraph" unicode="&#xb6;" horiz-adv-x="524" 
d="M218 -80v124q-89 52 -141.5 142.5t-52.5 195.5q0 140 89 248t227 137v-847h-122zM378 -80v847h122v-847h-122z" />
    <glyph glyph-name="periodcentered" unicode="&#xb7;" horiz-adv-x="212" 
d="M188 361q0 -35 -24 -58.5t-58 -23.5t-58 23.5t-24 58.5t24 58.5t58 23.5t58 -23.5t24 -58.5z" />
    <glyph glyph-name="cedilla" unicode="&#xb8;" horiz-adv-x="202" 
d="M178 -58q0 -39 -27 -66t-66 -27h-61v82h61q11 0 11 12q0 4 -3 7.5t-9.5 6t-11 4t-12 3.5t-9.5 3l36 99h87l-21 -60q25 -27 25 -64z" />
    <glyph glyph-name="onesuperior" unicode="&#xb9;" horiz-adv-x="124" 
d="M100 490h-61v216h-15v61h76v-277z" />
    <glyph glyph-name="ordmasculine" unicode="&#xba;" horiz-adv-x="478" 
d="M454 546q0 -89 -63 -152t-152 -63t-152 63.5t-63 151.5q0 89 63 152.5t152 63.5q90 0 152.5 -63t62.5 -153zM331 546q0 38 -27 65.5t-65 27.5t-65 -27.5t-27 -65.5t27.5 -65t64.5 -27t64.5 27t27.5 65z" />
    <glyph glyph-name="guillemotright" unicode="&#xbb;" horiz-adv-x="368" 
d="M24 240l89 125l-89 125l67 47l123 -172l-123 -172zM154 240l89 125l-89 125l67 47l123 -172l-123 -172z" />
    <glyph glyph-name="onequarter" unicode="&#xbc;" horiz-adv-x="543" 
d="M131 171h-86v309h-21v87h107v-396zM192 0h-85l207 565h85zM519 0h-30v-80h-87v80h-158l139 408l82 -27l-101 -295h38v61h87v-61h30v-86z" />
    <glyph glyph-name="onehalf" unicode="&#xbd;" horiz-adv-x="585" 
d="M561 0h-259l148 175q21 24 21 56q0 36 -25.5 61.5t-60.5 25.5v86q71 0 122 -50.5t51 -122.5q0 -31 -10.5 -57.5t-22 -42t-37.5 -45.5h73v-86zM131 171h-86v309h-21v87h107v-396zM192 0h-85l207 565h85z" />
    <glyph glyph-name="threequarters" unicode="&#xbe;" horiz-adv-x="684" 
d="M291 260q0 -78 -54.5 -132t-132.5 -54v85q42 1 71.5 30t29.5 71q0 40 -30 70.5t-71 30.5h-80l79 117h-60v87h221l-88 -132q52 -23 83.5 -70t31.5 -103zM333 0h-85l207 565h85zM660 0h-30v-80h-87v80h-158l139 408l82 -27l-101 -295h38v61h87v-61h30v-86z" />
    <glyph glyph-name="questiondown" unicode="&#xbf;" horiz-adv-x="347" 
d="M271 -197q-102 0 -174.5 75.5t-72.5 180.5q0 50 30 108l85 158v70h123v-85q0 -16 -7 -29l-92 -172q-16 -30 -16 -66q0 -51 40.5 -84t91.5 -33q11 0 19 3l25 -121q-28 -5 -52 -5zM118 509q0 34 24 57.5t58 23.5t57.5 -23.5t23.5 -57.5t-23.5 -58t-57.5 -24t-58 23.5
t-24 58.5z" />
    <glyph glyph-name="Agrave" unicode="&#xc0;" horiz-adv-x="418" 
d="M394 0h-123v148h-54v-148h-123v148h-70v123h70v283q0 137 150 232q150 -92 150 -232v-554zM271 271v283q0 48 -27 78q-27 -33 -27 -78v-283h54zM306 877l-14 -81l-180 32l14 80z" />
    <glyph glyph-name="Aacute" unicode="&#xc1;" horiz-adv-x="418" 
d="M394 0h-123v148h-54v-148h-123v148h-70v123h70v283q0 137 150 232q150 -92 150 -232v-554zM271 271v283q0 48 -27 78q-27 -33 -27 -78v-283h54zM339 827l-180 -32l-14 81l180 31z" />
    <glyph glyph-name="Acircumflex" unicode="&#xc2;" horiz-adv-x="418" 
d="M394 0h-123v148h-54v-148h-123v148h-70v123h70v283q0 137 150 232q150 -92 150 -232v-554zM271 271v283q0 48 -27 78q-27 -33 -27 -78v-283h54zM377 849l-38 -72l-96 50l-95 -50l-39 72l134 71z" />
    <glyph glyph-name="Atilde" unicode="&#xc3;" horiz-adv-x="418" 
d="M394 0h-123v148h-54v-148h-123v148h-70v123h70v283q0 137 150 232q150 -92 150 -232v-554zM271 271v283q0 48 -27 78q-27 -33 -27 -78v-283h54zM383 896q-33 -87 -92 -87q-18 0 -50.5 12.5t-47.5 12.5q-17 0 -26 -26l-78 24q29 91 86 91q20 0 54 -13t47 -13q21 0 31 28z
" />
    <glyph glyph-name="Adieresis" unicode="&#xc4;" horiz-adv-x="418" 
d="M394 0h-123v148h-54v-148h-123v148h-70v123h70v283q0 137 150 232q150 -92 150 -232v-554zM271 271v283q0 48 -27 78q-27 -33 -27 -78v-283h54zM234 845l-53 -53l-54 53l54 53zM357 845l-54 -53l-53 53l53 53z" />
    <glyph glyph-name="Aring" unicode="&#xc5;" horiz-adv-x="418" 
d="M394 0h-123v148h-54v-148h-123v148h-70v123h70v283q0 137 150 232q150 -92 150 -232v-554zM271 271v283q0 48 -27 78q-27 -33 -27 -78v-283h54zM350 846q0 -44 -31 -75t-75 -31t-75 31t-31 75t31 75t75 31t75 -31t31 -75zM289 846q0 18 -13.5 31.5t-31.5 13.5
t-31.5 -13.5t-13.5 -31.5t13.5 -31.5t31.5 -13.5t31.5 13.5t13.5 31.5z" />
    <glyph glyph-name="AE" unicode="&#xc6;" horiz-adv-x="538" 
d="M514 0h-244v148h-54v-148h-123v148h-69v123h69v283q0 137 150 232q6 -3 15.5 -10t13.5 -9h242v-123h-121v-373h120v-123h-120l1 -25h120v-123zM270 271v290q0 37 -27 71q-27 -33 -27 -78v-283h54z" />
    <glyph glyph-name="Ccedilla" unicode="&#xc7;" horiz-adv-x="441" 
d="M417 -11q-162 1 -277.5 116t-115.5 277t115.5 277.5t277.5 115.5v-123q-112 0 -191 -79t-79 -191t79 -191t191 -79v-123zM297 -58q0 -39 -27 -66t-66 -27h-61v82h61q11 0 11 12q0 4 -3 7.5t-9.5 6t-11 4t-12 3.5t-9.5 3l36 99h87l-21 -60q25 -27 25 -64z" />
    <glyph glyph-name="Egrave" unicode="&#xc8;" horiz-adv-x="350" 
d="M326 0h-119q-52 0 -88.5 37t-36.5 89v23h-58v123h58v495h244v-123h-121v-372h119v-123h-119v-23q0 -2 2 -2h119v-124zM272 877l-14 -81l-180 32l14 80z" />
    <glyph glyph-name="Eacute" unicode="&#xc9;" horiz-adv-x="350" 
d="M326 0h-119q-52 0 -88.5 37t-36.5 89v23h-58v123h58v495h244v-123h-121v-372h119v-123h-119v-23q0 -2 2 -2h119v-124zM299 827l-180 -32l-14 81l180 31z" />
    <glyph glyph-name="Ecircumflex" unicode="&#xca;" horiz-adv-x="350" 
d="M326 0h-119q-52 0 -88.5 37t-36.5 89v23h-58v123h58v495h244v-123h-121v-372h119v-123h-119v-23q0 -2 2 -2h119v-124zM334 858l-38 -72l-96 50l-95 -50l-39 72l134 71z" />
    <glyph glyph-name="Edieresis" unicode="&#xcb;" horiz-adv-x="350" 
d="M326 0h-119q-52 0 -88.5 37t-36.5 89v23h-58v123h58v495h244v-123h-121v-372h119v-123h-119v-23q0 -2 2 -2h119v-124zM197 845l-53 -53l-54 53l54 53zM320 845l-54 -53l-53 53l53 53z" />
    <glyph glyph-name="Igrave" unicode="&#xcc;" 
d="M147 0h-123v767h123v-767zM183 877l-14 -81l-180 32l14 80z" />
    <glyph glyph-name="Iacute" unicode="&#xcd;" 
d="M147 0h-123v767h123v-767zM183 827l-180 -32l-14 81l180 31z" />
    <glyph glyph-name="Icircumflex" unicode="&#xce;" 
d="M147 0h-123v767h123v-767zM220 858l-38 -72l-96 50l-95 -50l-39 72l134 71z" />
    <glyph glyph-name="Idieresis" unicode="&#xcf;" 
d="M147 0h-123v767h123v-767zM78 845l-53 -53l-54 53l54 53zM201 845l-54 -53l-53 53l53 53z" />
    <glyph glyph-name="Eth" unicode="&#xd0;" horiz-adv-x="392" 
d="M368 382q0 -140 -89.5 -248.5t-226.5 -135.5v303h-28v123h28v344q138 -29 227 -137.5t89 -248.5zM209 301h-34v-99q70 80 70 180t-70 180v-138h34v-123z" />
    <glyph glyph-name="Ntilde" unicode="&#xd1;" horiz-adv-x="350" 
d="M326 0h-123v423q0 91 -56 150v-573h-123v783q121 -54 179 -102v86h123v-767zM322 896q-33 -87 -92 -87q-18 0 -50.5 12.5t-47.5 12.5q-17 0 -26 -26l-78 24q29 91 86 91q20 0 54 -13t47 -13q21 0 31 28z" />
    <glyph glyph-name="Ograve" unicode="&#xd2;" horiz-adv-x="835" 
d="M811 377q0 -162 -115.5 -277t-277.5 -115t-278 115t-116 277q0 163 115.5 278t278.5 115q162 0 277.5 -115.5t115.5 -277.5zM688 377q0 111 -79.5 190.5t-190.5 79.5q-112 0 -191 -79t-79 -191t79 -191t191 -79q111 0 190.5 79.5t79.5 190.5zM514 877l-14 -81l-180 32
l14 80z" />
    <glyph glyph-name="Oacute" unicode="&#xd3;" horiz-adv-x="835" 
d="M811 377q0 -162 -115.5 -277t-277.5 -115t-278 115t-116 277q0 163 115.5 278t278.5 115q162 0 277.5 -115.5t115.5 -277.5zM688 377q0 111 -79.5 190.5t-190.5 79.5q-112 0 -191 -79t-79 -191t79 -191t191 -79q111 0 190.5 79.5t79.5 190.5zM514 827l-180 -32l-14 81
l180 31z" />
    <glyph glyph-name="Ocircumflex" unicode="&#xd4;" horiz-adv-x="835" 
d="M811 377q0 -162 -115.5 -277t-277.5 -115t-278 115t-116 277q0 163 115.5 278t278.5 115q162 0 277.5 -115.5t115.5 -277.5zM688 377q0 111 -79.5 190.5t-190.5 79.5q-112 0 -191 -79t-79 -191t79 -191t191 -79q111 0 190.5 79.5t79.5 190.5zM551 858l-38 -72l-96 50
l-95 -50l-39 72l134 71z" />
    <glyph glyph-name="Otilde" unicode="&#xd5;" horiz-adv-x="835" 
d="M811 377q0 -162 -115.5 -277t-277.5 -115t-278 115t-116 277q0 163 115.5 278t278.5 115q162 0 277.5 -115.5t115.5 -277.5zM688 377q0 111 -79.5 190.5t-190.5 79.5q-112 0 -191 -79t-79 -191t79 -191t191 -79q111 0 190.5 79.5t79.5 190.5zM564 896q-33 -87 -92 -87
q-18 0 -50.5 12.5t-47.5 12.5q-17 0 -26 -26l-78 24q29 91 86 91q20 0 54 -13t47 -13q21 0 31 28z" />
    <glyph glyph-name="Odieresis" unicode="&#xd6;" horiz-adv-x="835" 
d="M811 377q0 -162 -115.5 -277t-277.5 -115t-278 115t-116 277q0 163 115.5 278t278.5 115q162 0 277.5 -115.5t115.5 -277.5zM688 377q0 111 -79.5 190.5t-190.5 79.5q-112 0 -191 -79t-79 -191t79 -191t191 -79q111 0 190.5 79.5t79.5 190.5zM409 845l-53 -53l-54 53
l54 53zM532 845l-54 -53l-53 53l53 53z" />
    <glyph glyph-name="multiply" unicode="&#xd7;" horiz-adv-x="326" 
d="M111 70l-87 87l52 53l-52 51l87 87l52 -51l52 51l87 -87l-52 -51l52 -53l-87 -87l-52 53z" />
    <glyph glyph-name="Oslash" unicode="&#xd8;" horiz-adv-x="835" 
d="M811 377q0 -162 -115.5 -277t-277.5 -115q-128 0 -231 74l-58 -57l-87 87l58 57q-76 106 -76 231q0 163 115.5 278t278.5 115q126 0 230 -76l58 58l87 -87l-58 -58q76 -104 76 -230zM688 377q0 78 -41 142l-371 -371q68 -41 142 -41q111 0 190.5 79.5t79.5 190.5z
M560 606q-64 41 -142 41q-112 0 -191 -79t-79 -191q0 -74 41 -142z" />
    <glyph glyph-name="Ugrave" unicode="&#xd9;" horiz-adv-x="346" 
d="M322 125q0 -62 -43.5 -105t-105.5 -43t-105.5 43.5t-43.5 104.5v642h123v-642q0 -11 7.5 -18.5t18.5 -7.5t18.5 7.5t7.5 18.5v642h123v-642zM270 877l-14 -81l-180 32l14 80z" />
    <glyph glyph-name="Uacute" unicode="&#xda;" horiz-adv-x="346" 
d="M322 125q0 -62 -43.5 -105t-105.5 -43t-105.5 43.5t-43.5 104.5v642h123v-642q0 -11 7.5 -18.5t18.5 -7.5t18.5 7.5t7.5 18.5v642h123v-642zM270 827l-180 -32l-14 81l180 31z" />
    <glyph glyph-name="Ucircumflex" unicode="&#xdb;" horiz-adv-x="346" 
d="M322 125q0 -62 -43.5 -105t-105.5 -43t-105.5 43.5t-43.5 104.5v642h123v-642q0 -11 7.5 -18.5t18.5 -7.5t18.5 7.5t7.5 18.5v642h123v-642zM307 858l-38 -72l-96 50l-95 -50l-39 72l134 71z" />
    <glyph glyph-name="Udieresis" unicode="&#xdc;" horiz-adv-x="346" 
d="M322 125q0 -62 -43.5 -105t-105.5 -43t-105.5 43.5t-43.5 104.5v642h123v-642q0 -11 7.5 -18.5t18.5 -7.5t18.5 7.5t7.5 18.5v642h123v-642zM165 845l-53 -53l-54 53l54 53zM288 845l-54 -53l-53 53l53 53z" />
    <glyph glyph-name="Yacute" unicode="&#xdd;" horiz-adv-x="350" 
d="M326 370q0 -113 -89 -191v-179h-123v178q-42 35 -66 86t-24 106v397h123v-397q0 -41 28 -79q27 33 27 79v397h124v-397zM272 827l-180 -32l-14 81l180 31z" />
    <glyph glyph-name="Thorn" unicode="&#xde;" horiz-adv-x="378" 
d="M354 386q0 -103 -55 -183t-151 -129v-74h-124v767h124v-68q96 -46 151 -127.5t55 -185.5zM231 386q0 103 -83 170v-337q83 65 83 167z" />
    <glyph glyph-name="germandbls" unicode="&#xdf;" horiz-adv-x="457" 
d="M433 116q0 -88 -58 -162l-97 76q31 37 31 81q0 35 -16.5 68t-35.5 56.5t-35.5 64.5t-16.5 90q0 103 70 182q11 12 11 28q0 19 -16.5 32.5t-35.5 13.5t-35.5 -13.5t-16.5 -32.5v-600h-123v441h-35v124h35v35q0 70 52.5 119.5t122.5 49.5t122.5 -49.5t52.5 -119.5
q0 -34 -12.5 -63t-28 -45.5t-28 -43.5t-12.5 -58q0 -29 16.5 -61t36 -57.5t36 -67.5t16.5 -88z" />
    <glyph glyph-name="agrave" unicode="&#xe0;" horiz-adv-x="358" 
d="M334 0h-180q-53 0 -91.5 38t-38.5 91v161q0 53 38.5 90.5t91.5 37.5q-23 36 -59 55v132q93 -26 150.5 -103.5t57.5 -174.5v-204h31v-123zM180 123v173h-27q-5 0 -5 -6v-161q0 -6 6 -6h26zM276 675l-14 -81l-180 32l14 80z" />
    <glyph glyph-name="aacute" unicode="&#xe1;" horiz-adv-x="358" 
d="M334 0h-180q-53 0 -91.5 38t-38.5 91v161q0 53 38.5 90.5t91.5 37.5q-23 36 -59 55v132q93 -26 150.5 -103.5t57.5 -174.5v-204h31v-123zM180 123v173h-27q-5 0 -5 -6v-161q0 -6 6 -6h26zM237 647l-180 -32l-14 81l180 31z" />
    <glyph glyph-name="acircumflex" unicode="&#xe2;" horiz-adv-x="358" 
d="M334 0h-180q-53 0 -91.5 38t-38.5 91v161q0 53 38.5 90.5t91.5 37.5q-23 36 -59 55v132q93 -26 150.5 -103.5t57.5 -174.5v-204h31v-123zM180 123v173h-27q-5 0 -5 -6v-161q0 -6 6 -6h26zM279 670l-38 -72l-96 50l-95 -50l-39 72l134 71z" />
    <glyph glyph-name="atilde" unicode="&#xe3;" horiz-adv-x="358" 
d="M334 0h-180q-53 0 -91.5 38t-38.5 91v161q0 53 38.5 90.5t91.5 37.5q-23 36 -59 55v132q93 -26 150.5 -103.5t57.5 -174.5v-204h31v-123zM180 123v173h-27q-5 0 -5 -6v-161q0 -6 6 -6h26zM310 710q-33 -87 -92 -87q-18 0 -50.5 12.5t-47.5 12.5q-17 0 -26 -26l-78 24
q29 91 86 91q20 0 54 -13t47 -13q21 0 31 28z" />
    <glyph glyph-name="adieresis" unicode="&#xe4;" horiz-adv-x="358" 
d="M334 0h-180q-53 0 -91.5 38t-38.5 91v161q0 53 38.5 90.5t91.5 37.5q-23 36 -59 55v132q93 -26 150.5 -103.5t57.5 -174.5v-204h31v-123zM180 123v173h-27q-5 0 -5 -6v-161q0 -6 6 -6h26zM144 670l-53 -53l-54 53l54 53zM267 670l-54 -53l-53 53l53 53z" />
    <glyph glyph-name="aring" unicode="&#xe5;" horiz-adv-x="358" 
d="M334 0h-180q-53 0 -91.5 38t-38.5 91v161q0 53 38.5 90.5t91.5 37.5q-23 36 -59 55v132q93 -26 150.5 -103.5t57.5 -174.5v-204h31v-123zM180 123v173h-27q-5 0 -5 -6v-161q0 -6 6 -6h26zM307 691q0 -43 -31.5 -74.5t-74.5 -31.5t-74.5 31.5t-31.5 74.5t31.5 74.5
t74.5 31.5q44 0 75 -31t31 -75zM246 691q0 18 -13.5 31.5t-31.5 13.5t-31.5 -13.5t-13.5 -31.5t13.5 -31.5t31.5 -13.5t31.5 13.5t13.5 31.5z" />
    <glyph glyph-name="ae" unicode="&#xe6;" horiz-adv-x="482" 
d="M458 278q0 -53 -38 -91t-91 -38h-27v-15q0 -11 12 -11h129v-123h-290q-53 0 -91 38t-38 91v161q0 53 38 90.5t91 37.5q-20 34 -59 55v132q73 -20 125 -74q23 23 47.5 30t62.5 7q53 0 91 -38.5t38 -91.5v-160zM179 123v173h-27q-5 0 -5 -6v-161q0 -6 6 -6h26zM335 278v160
q0 6 -6 6h-21q-6 0 -6 -6v-166h27q6 0 6 6z" />
    <glyph glyph-name="ccedilla" unicode="&#xe7;" horiz-adv-x="340" 
d="M316 -12q-121 2 -206.5 88t-85.5 207q0 122 85.5 208.5t206.5 87.5v-124q-71 -1 -120 -51t-49 -121q0 -70 49 -120t120 -52v-123zM225 -59q0 -39 -27 -66t-66 -27h-61v82h61q11 0 11 12q0 4 -3 7.5t-9.5 6t-11 4t-12 3.5t-9.5 3l36 99h87l-21 -60q25 -27 25 -64z" />
    <glyph glyph-name="egrave" unicode="&#xe8;" horiz-adv-x="361" 
d="M337 278q0 -53 -38 -91t-91 -38h-27v-15q0 -11 11 -11h130v-123h-130q-62 0 -98 43t-36 106h-34v123h34v166q0 53 38 91.5t91 38.5h21q53 0 91 -38.5t38 -91.5v-160zM214 278v160q0 6 -6 6h-21q-6 0 -6 -6v-166h27q6 0 6 6zM277 675l-14 -81l-180 32l14 80z" />
    <glyph glyph-name="eacute" unicode="&#xe9;" horiz-adv-x="361" 
d="M337 278q0 -53 -38 -91t-91 -38h-27v-15q0 -11 11 -11h130v-123h-130q-62 0 -98 43t-36 106h-34v123h34v166q0 53 38 91.5t91 38.5h21q53 0 91 -38.5t38 -91.5v-160zM214 278v160q0 6 -6 6h-21q-6 0 -6 -6v-166h27q6 0 6 6zM277 625l-180 -32l-14 81l180 31z" />
    <glyph glyph-name="ecircumflex" unicode="&#xea;" horiz-adv-x="361" 
d="M337 278q0 -53 -38 -91t-91 -38h-27v-15q0 -11 11 -11h130v-123h-130q-62 0 -98 43t-36 106h-34v123h34v166q0 53 38 91.5t91 38.5h21q53 0 91 -38.5t38 -91.5v-160zM214 278v160q0 6 -6 6h-21q-6 0 -6 -6v-166h27q6 0 6 6zM314 656l-38 -72l-96 50l-95 -50l-39 72
l134 71z" />
    <glyph glyph-name="edieresis" unicode="&#xeb;" horiz-adv-x="361" 
d="M337 278q0 -53 -38 -91t-91 -38h-27v-15q0 -11 11 -11h130v-123h-130q-62 0 -98 43t-36 106h-34v123h34v166q0 53 38 91.5t91 38.5h21q53 0 91 -38.5t38 -91.5v-160zM214 278v160q0 6 -6 6h-21q-6 0 -6 -6v-166h27q6 0 6 6zM172 643l-53 -53l-54 53l54 53zM295 643
l-54 -53l-53 53l53 53z" />
    <glyph glyph-name="igrave" unicode="&#xec;" 
d="M147 0h-123v565h123v-565zM183 675l-14 -81l-180 32l14 80z" />
    <glyph glyph-name="iacute" unicode="&#xed;" 
d="M147 0h-123v565h123v-565zM183 625l-180 -32l-14 81l180 31z" />
    <glyph glyph-name="icircumflex" unicode="&#xee;" 
d="M147 0h-123v565h123v-565zM220 656l-38 -72l-96 50l-95 -50l-39 72l134 71z" />
    <glyph glyph-name="idieresis" unicode="&#xef;" 
d="M147 0h-123v565h123v-565zM78 643l-53 -53l-54 53l54 53zM201 643l-54 -53l-53 53l53 53z" />
    <glyph glyph-name="eth" unicode="&#xf0;" horiz-adv-x="355" 
d="M331 548h-20v-570q-128 10 -207.5 91t-79.5 209q0 84 44 155.5t120 106.5v8h-31v83h31v4q0 12 -23 12q-5 0 -13.5 -0.5t-10.5 -0.5v123h36q57 0 95.5 -40t38.5 -98h20v-83zM188 168v221q-40 -44 -40 -111q0 -64 40 -110z" />
    <glyph glyph-name="ntilde" unicode="&#xf1;" horiz-adv-x="334" 
d="M310 0h-123v363q0 50 -40 79v-442h-123v587h62q93 0 158.5 -66t65.5 -158v-363zM314 694q-33 -87 -92 -87q-18 0 -50.5 12.5t-47.5 12.5q-17 0 -26 -26l-78 24q29 91 86 91q20 0 54 -13t47 -13q21 0 31 28z" />
    <glyph glyph-name="ograve" unicode="&#xf2;" horiz-adv-x="638" 
d="M614 283q0 -122 -86.5 -208t-208.5 -86t-208.5 86t-86.5 208t86.5 209t208.5 87q123 0 209 -86.5t86 -209.5zM491 283q0 71 -50.5 121.5t-121.5 50.5t-121.5 -50.5t-50.5 -121.5t50.5 -121.5t121.5 -50.5t121.5 50.5t50.5 121.5zM416 675l-14 -81l-180 32l14 80z" />
    <glyph glyph-name="oacute" unicode="&#xf3;" horiz-adv-x="638" 
d="M614 283q0 -122 -86.5 -208t-208.5 -86t-208.5 86t-86.5 208t86.5 209t208.5 87q123 0 209 -86.5t86 -209.5zM491 283q0 71 -50.5 121.5t-121.5 50.5t-121.5 -50.5t-50.5 -121.5t50.5 -121.5t121.5 -50.5t121.5 50.5t50.5 121.5zM416 625l-180 -32l-14 81l180 31z" />
    <glyph glyph-name="ocircumflex" unicode="&#xf4;" horiz-adv-x="638" 
d="M614 283q0 -122 -86.5 -208t-208.5 -86t-208.5 86t-86.5 208t86.5 209t208.5 87q123 0 209 -86.5t86 -209.5zM491 283q0 71 -50.5 121.5t-121.5 50.5t-121.5 -50.5t-50.5 -121.5t50.5 -121.5t121.5 -50.5t121.5 50.5t50.5 121.5zM453 656l-38 -72l-96 50l-95 -50l-39 72
l134 71z" />
    <glyph glyph-name="otilde" unicode="&#xf5;" horiz-adv-x="638" 
d="M614 283q0 -122 -86.5 -208t-208.5 -86t-208.5 86t-86.5 208t86.5 209t208.5 87q123 0 209 -86.5t86 -209.5zM491 283q0 71 -50.5 121.5t-121.5 50.5t-121.5 -50.5t-50.5 -121.5t50.5 -121.5t121.5 -50.5t121.5 50.5t50.5 121.5zM466 694q-33 -87 -92 -87
q-18 0 -50.5 12.5t-47.5 12.5q-17 0 -26 -26l-78 24q29 91 86 91q20 0 54 -13t47 -13q21 0 31 28z" />
    <glyph glyph-name="odieresis" unicode="&#xf6;" horiz-adv-x="638" 
d="M614 283q0 -122 -86.5 -208t-208.5 -86t-208.5 86t-86.5 208t86.5 209t208.5 87q123 0 209 -86.5t86 -209.5zM491 283q0 71 -50.5 121.5t-121.5 50.5t-121.5 -50.5t-50.5 -121.5t50.5 -121.5t121.5 -50.5t121.5 50.5t50.5 121.5zM311 643l-53 -53l-54 53l54 53zM434 643
l-54 -53l-53 53l53 53z" />
    <glyph glyph-name="divide" unicode="&#xf7;" horiz-adv-x="318" 
d="M294 271v-123h-270v123h270zM230 61q0 -29 -21 -49.5t-50 -20.5t-50 20.5t-21 49.5q0 30 20.5 50.5t50.5 20.5t50.5 -20.5t20.5 -50.5zM230 357q0 -30 -20.5 -50.5t-50.5 -20.5t-50.5 20.5t-20.5 50.5q0 29 20.5 49.5t50.5 20.5t50.5 -20.5t20.5 -49.5z" />
    <glyph glyph-name="oslash" unicode="&#xf8;" horiz-adv-x="638" 
d="M614 283q0 -122 -86.5 -208t-208.5 -86q-85 0 -160 47l-39 -39l-87 87l39 39q-48 73 -48 160q0 122 86.5 209t208.5 87q89 0 160 -48l39 39l87 -88l-39 -38q48 -74 48 -161zM491 283q0 40 -15 70l-227 -227q33 -15 70 -15q71 0 121.5 50.5t50.5 121.5zM389 440
q-30 15 -70 15q-71 0 -121.5 -50.5t-50.5 -121.5q0 -33 15 -70z" />
    <glyph glyph-name="ugrave" unicode="&#xf9;" horiz-adv-x="333" 
d="M309 127q0 -59 -41.5 -100.5t-100.5 -41.5t-101 42t-42 100v438h123v-438q0 -8 6 -14t14 -6t13.5 6t5.5 14v438h123v-438zM263 675l-14 -81l-180 32l14 80z" />
    <glyph glyph-name="uacute" unicode="&#xfa;" horiz-adv-x="333" 
d="M309 127q0 -59 -41.5 -100.5t-100.5 -41.5t-101 42t-42 100v438h123v-438q0 -8 6 -14t14 -6t13.5 6t5.5 14v438h123v-438zM263 625l-180 -32l-14 81l180 31z" />
    <glyph glyph-name="ucircumflex" unicode="&#xfb;" horiz-adv-x="333" 
d="M309 127q0 -59 -41.5 -100.5t-100.5 -41.5t-101 42t-42 100v438h123v-438q0 -8 6 -14t14 -6t13.5 6t5.5 14v438h123v-438zM300 656l-38 -72l-96 50l-95 -50l-39 72l134 71z" />
    <glyph glyph-name="udieresis" unicode="&#xfc;" horiz-adv-x="333" 
d="M309 127q0 -59 -41.5 -100.5t-100.5 -41.5t-101 42t-42 100v438h123v-438q0 -8 6 -14t14 -6t13.5 6t5.5 14v438h123v-438zM158 643l-53 -53l-54 53l54 53zM281 643l-54 -53l-53 53l53 53z" />
    <glyph glyph-name="yacute" unicode="&#xfd;" horiz-adv-x="335" 
d="M311 -17q0 -55 -39.5 -94.5t-94.5 -39.5h-86v123h83q15 0 15 22q0 4 -0.5 10t-0.5 7q-76 35 -120 106t-44 155v293h124v-293q0 -64 40 -110v403h123v-582zM275 625l-180 -32l-14 81l180 31z" />
    <glyph glyph-name="thorn" unicode="&#xfe;" horiz-adv-x="335" 
d="M311 287q0 -84 -44 -155t-119 -107v-176h-124v918h124v-219q75 -36 119 -106.5t44 -154.5zM188 287q0 64 -40 110v-221q40 48 40 111z" />
    <glyph glyph-name="ydieresis" unicode="&#xff;" horiz-adv-x="335" 
d="M311 -17q0 -55 -39.5 -94.5t-94.5 -39.5h-86v123h83q15 0 15 22q0 4 -0.5 10t-0.5 7q-76 35 -120 106t-44 155v293h124v-293q0 -64 40 -110v403h123v-582zM159 643l-53 -53l-54 53l54 53zM282 643l-54 -53l-53 53l53 53z" />
    <glyph glyph-name="dotlessi" unicode="&#x131;" 
d="M147 0h-123v565h123v-565z" />
    <glyph glyph-name="OE" unicode="&#x152;" horiz-adv-x="468" 
d="M444 0h-119q-31 0 -58 15q-40 -32 -93 -32q-62 0 -106 43.5t-44 104.5v502q0 61 44 105t105 44q39 0 66 -15h205v-123h-121v-372h119v-123h-119v-23q0 -2 2 -2h119v-124zM199 149h-31v123h31v361q0 11 -7.5 18.5t-18.5 7.5q-10 0 -17.5 -7.5t-7.5 -18.5v-502
q0 -11 8 -18.5t18 -7.5q25 0 25 36v8z" />
    <glyph glyph-name="oe" unicode="&#x153;" horiz-adv-x="489" 
d="M465 278q0 -53 -38 -91t-91 -38h-27v-15q0 -11 11 -11h130v-123h-130q-34 0 -65 17q-39 -31 -88 -31q-59 0 -101 41.5t-42 99.5v305q0 59 42 101t101 42q44 0 81 -26q33 19 88 19q53 0 91 -38.5t38 -91.5v-160zM186 128v304q0 8 -5.5 14t-13.5 6t-14 -6t-6 -14v-304
q0 -8 6 -14t14 -6t13.5 6t5.5 14zM342 278v160q0 6 -6 6h-21q-6 0 -6 -6v-166h27q6 0 6 6z" />
    <glyph glyph-name="Scaron" unicode="&#x160;" horiz-adv-x="274" 
d="M250 699q-48 -33 -76 -87t-28 -113q0 -42 24 -99l12 -26t14 -31.5t11 -28.5q24 -74 24 -133q0 -128 -91 -227l-90 81q58 66 58 146q0 57 -42 154t-42 167q0 87 43 168t114 130zM28 904l38 72l96 -50l95 50l39 -72l-134 -71z" />
    <glyph glyph-name="scaron" unicode="&#x161;" horiz-adv-x="251" 
d="M227 501q-35 -21 -57.5 -56.5t-22.5 -74.5q0 -29 17.5 -65.5t35.5 -80t18 -87.5q0 -109 -81 -187l-86 87q44 41 44 96q0 38 -35.5 108.5t-35.5 125.5q0 72 38.5 137t101.5 103zM9 703l38 72l96 -50l95 50l39 -72l-134 -71z" />
    <glyph glyph-name="Ydieresis" unicode="&#x178;" horiz-adv-x="350" 
d="M326 370q0 -113 -89 -191v-179h-123v178q-42 35 -66 86t-24 106v397h123v-397q0 -41 28 -79q27 33 27 79v397h124v-397zM167 841l-53 -53l-54 53l54 53zM290 841l-54 -53l-53 53l53 53z" />
    <glyph glyph-name="Zcaron" unicode="&#x17d;" horiz-adv-x="357" 
d="M333 767l-153 -643h108v-124h-264l153 644h-102v123h258zM66 873l38 72l96 -50l95 50l39 -72l-134 -71z" />
    <glyph glyph-name="zcaron" unicode="&#x17e;" horiz-adv-x="369" 
d="M345 565l-150 -442h130v-123h-301l150 441h-104v124h275zM77 678l38 72l96 -50l95 50l39 -72l-134 -71z" />
    <glyph glyph-name="florin" unicode="&#x192;" horiz-adv-x="912" 
d="M498 429h21q0 -9 -1 -15q10 2 17 2q27 0 49 -11t25 -32q21 10 57 10q39 0 65.5 -17.5t26.5 -50.5q0 -17 -11 -31q-3 -5 -9 -5q-12 0 -12 10q0 3 3 7q7 11 7 19q0 21 -17 33.5t-42 12.5q-48 0 -80.5 -22.5t-32.5 -44.5q0 -32 45 -32q6 0 18 3t19 3q12 0 12 -12
q-5 -34 -37 -58q-36 -24 -75 -24q-57 0 -90 37q-33 -37 -90 -37q-40 0 -74 24t-37 58q0 12 10 12h4q16 -6 34 -6q48 0 48 32q0 22 -33.5 44.5t-83.5 22.5q-25 0 -41.5 -12.5t-16.5 -33.5q0 -9 7 -19q3 -4 3 -7q0 -10 -11 -10q-5 0 -10 5q-11 16 -11 31q0 33 26.5 50.5
t65.5 17.5q36 0 57 -10q3 21 25 32t47 11q6 0 20 -2q-1 7 -1 19q0 31 5 45q4 19 13 19t13 -19q4 -13 5 -25l-20 -24h21q0 -16 -3 -28q19 -13 19 -33q0 -29 -32 -40q-34 -16 -34 -27q0 -18 24 -26.5t51 -8.5t50.5 8.5t23.5 26.5q0 13 -32 27q-33 12 -33 40q0 20 19 33
q-2 18 -2 32q0 31 5 45q4 19 13 19t13 -19q4 -13 5 -26zM537 402q-28 0 -42 -11q-16 -10 -16 -23t16 -23q16 -11 42 -11t42 11q16 10 16 23t-16 23q-14 11 -42 11zM375 402q-27 0 -42 -11q-16 -10 -16 -23t16 -23q17 -11 42 -11q26 0 42 11q16 10 16 23t-16 23
q-14 11 -42 11zM532 267q-26 -22 -76 -22q-49 0 -76 22q-34 -26 -77 -26q-7 0 -23 2q10 -22 34.5 -35t51.5 -13q56 0 80 39q4 5 10 5q8 0 10 -5q24 -39 80 -39q27 0 51.5 13t33.5 35q-14 -2 -22 -2q-43 0 -77 26zM372 559q-135 -28 -135 -114q0 -5 1.5 -15t1.5 -16
q0 -12 -12 -12q-9 0 -9 10q-4 15 -4 33q0 74 55 127q-48 26 -58 73q0 11 11 11q10 0 11 -10q8 -32 38.5 -51t66.5 -19q34 0 63 17t39 46q3 7 11 7q9 0 10 -7q10 -29 39.5 -46t63.5 -17q36 0 66.5 19t38.5 51q1 10 11 10t10 -14q-9 -42 -52 -67q57 -55 57 -130q0 -22 -2 -33
q-3 -10 -11 -10q-11 0 -11 14q3 15 3 29q0 92 -117 111q-78 13 -106 56q-28 -42 -80 -53zM791 97q-61 -59 -144 -59q-42 -21 -94 -21h-12q-38 -19 -85 -19t-84 19h-13q-51 0 -95 21q-85 0 -142 59q-98 66 -98 151q0 66 61 122q-28 50 -28 103q0 117 118 198t281 81t281 -80
q119 -83 119 -199q0 -50 -28 -103q60 -55 60 -122q0 -84 -97 -151zM684 64q54 10 90.5 47.5t36.5 89.5q0 42 -28 78q-3 5 -3 7q0 10 11 10q6 0 9 -4q33 -41 33 -91q0 -21 -7 -46q40 43 40 93q0 59 -60 112q-3 6 -3 7q0 3 2 5q29 50 29 101q0 105 -110 182q-113 77 -268 77
q-157 0 -267 -77q-110 -76 -110 -182q0 -54 29 -101q1 0 1 -4q0 -5 -3 -8q-60 -53 -60 -112q0 -49 41 -93q-7 20 -7 46q0 51 32 91q4 4 10 4q10 0 10 -10q0 -1 -2 -7q-28 -34 -28 -78q0 -52 36.5 -89.5t89.5 -47.5q-54 47 -54 114q0 53 37 95q4 4 8 4q11 0 11 -9q0 -5 -3 -8
q-31 -36 -31 -82q0 -54 40.5 -92.5t97.5 -47.5q-64 49 -64 121q0 12 11 12t11 -12q0 -60 49.5 -100t114.5 -40t114.5 40t49.5 100q0 12 11 12t11 -12q0 -72 -64 -121q58 9 98.5 47.5t40.5 92.5q0 45 -32 82q-3 3 -3 8q0 9 11 9q3 0 9 -4q37 -43 37 -95q0 -67 -55 -114z" />
    <glyph glyph-name="circumflex" unicode="&#x2c6;" horiz-adv-x="316" 
d="M292 656l-38 -72l-96 50l-95 -50l-39 72l134 71z" />
    <glyph glyph-name="caron" unicode="&#x2c7;" horiz-adv-x="316" 
d="M24 714l38 72l96 -50l95 50l39 -72l-134 -71z" />
    <glyph glyph-name="ring" unicode="&#x2da;" horiz-adv-x="260" 
d="M236 644q0 -44 -31 -75t-75 -31t-75 31t-31 75t31 75t75 31t75 -31t31 -75zM175 644q0 18 -13.5 31.5t-31.5 13.5t-31.5 -13.5t-13.5 -31.5t13.5 -31.5t31.5 -13.5t31.5 13.5t13.5 31.5z" />
    <glyph glyph-name="tilde" unicode="&#x2dc;" horiz-adv-x="342" 
d="M318 694q-33 -87 -92 -87q-18 0 -50.5 12.5t-47.5 12.5q-17 0 -26 -26l-78 24q29 91 86 91q20 0 54 -13t47 -13q21 0 31 28z" />
    <glyph glyph-name="endash" unicode="&#x2013;" horiz-adv-x="533" 
d="M509 301h-485v123h485v-123z" />
    <glyph glyph-name="emdash" unicode="&#x2014;" horiz-adv-x="1033" 
d="M1009 301h-985v123h985v-123z" />
    <glyph glyph-name="quoteleft" unicode="&#x2018;" 
d="M24 620l56 178l67 -13v-189z" />
    <glyph glyph-name="quoteright" unicode="&#x2019;" 
d="M147 774l-56 -178l-67 13v189z" />
    <glyph glyph-name="quotesinglbase" unicode="&#x201a;" 
d="M147 84l-56 -178l-67 13v189z" />
    <glyph glyph-name="quotedblleft" unicode="&#x201c;" horiz-adv-x="301" 
d="M24 620l56 178l67 -13v-189zM154 620l56 178l67 -13v-189z" />
    <glyph glyph-name="quotedblright" unicode="&#x201d;" horiz-adv-x="301" 
d="M147 774l-56 -178l-67 13v189zM277 774l-56 -178l-67 13v189z" />
    <glyph glyph-name="quotedblbase" unicode="&#x201e;" horiz-adv-x="301" 
d="M147 84l-56 -178l-67 13v189zM277 84l-56 -178l-67 13v189z" />
    <glyph glyph-name="dagger" unicode="&#x2020;" horiz-adv-x="506" 
d="M265 -50h-25q-6 114 -39 210t-85 156q60 25 93.5 58t33.5 88q-24 -1 -39.5 -14t-22.5 -27t-26 -26t-50 -12q-35 0 -58 26t-23 63t23 63t58 26q31 0 50 -12t26 -26t22.5 -27t39.5 -14q-2 44 -17 69t-44 46q-39 31 -39 83q0 41 32 70.5t78 29.5q45 0 77.5 -29.5t32.5 -70.5
q0 -52 -39 -83q-30 -22 -45 -46.5t-16 -68.5q23 1 38.5 14t23 27t26.5 26t49 12q36 0 59 -26t23 -63t-23 -63t-59 -26q-30 0 -49 12t-26.5 26t-23 27t-38.5 14q0 -55 33.5 -88t92.5 -58q-52 -60 -85 -156t-39 -210z" />
    <glyph glyph-name="daggerdbl" unicode="&#x2021;" horiz-adv-x="426" 
d="M326 365q-44 -19 -74.5 -61t-30.5 -91q20 1 32.5 11.5t18.5 22.5t22 22t41 10q29 0 48 -21.5t19 -52.5t-18.5 -52.5t-48.5 -21.5q-25 0 -41 10t-22 21.5t-18.5 22.5t-32.5 12q2 -37 14 -57t37 -39q31 -24 31 -69q0 -34 -26.5 -58t-63.5 -24t-63.5 24t-26.5 58q0 45 31 69
q25 19 37 39t14 57q-19 -1 -32 -12t-19 -22.5t-22 -21.5t-41 -10q-30 0 -48.5 21.5t-18.5 52.5t19 52.5t48 21.5q25 0 41 -10t22 -22t19 -22.5t32 -11.5q0 49 -30.5 91t-74.5 61q44 19 74.5 61t30.5 91q-19 -1 -32 -11.5t-19 -22.5t-22 -22t-41 -10q-29 0 -48 21.5t-19 52.5
t18.5 52.5t48.5 21.5q25 0 41 -10t22 -21.5t19 -22.5t32 -12q-2 37 -14 57t-37 39q-31 24 -31 69q0 34 26.5 58t63.5 24t63.5 -24t26.5 -58q0 -45 -31 -69q-25 -19 -37 -39t-14 -57q20 1 32.5 12t18.5 22.5t22 21.5t41 10q30 0 48.5 -21.5t18.5 -52.5t-19 -52.5t-48 -21.5
q-25 0 -41 10t-22 22t-18.5 22.5t-32.5 11.5q0 -49 30.5 -91t74.5 -61z" />
    <glyph glyph-name="bullet" unicode="&#x2022;" horiz-adv-x="561" 
d="M271 185l-247 176h135zM537 361l-248 -176l112 176h136zM462 511l-182 -285l-182 285h364z" />
    <glyph glyph-name="ellipsis" unicode="&#x2026;" horiz-adv-x="612" 
d="M188 71q0 -34 -24 -57.5t-58 -23.5t-58 23.5t-24 57.5q0 35 24 58.5t58 23.5t58 -23.5t24 -58.5zM388 71q0 -34 -24 -57.5t-58 -23.5t-58 23.5t-24 57.5q0 35 24 58.5t58 23.5t58 -23.5t24 -58.5zM588 71q0 -34 -24 -57.5t-58 -23.5t-58 23.5t-24 57.5q0 35 24 58.5
t58 23.5t58 -23.5t24 -58.5z" />
    <glyph glyph-name="perthousand" unicode="&#x2030;" horiz-adv-x="678" 
d="M244 411q0 -64 -32.5 -109t-77.5 -45q-44 0 -77 45.5t-33 108.5q0 64 32.5 110t77.5 46t77.5 -46t32.5 -110zM170 411q0 22 -10.5 36.5t-25.5 14.5t-25 -14.5t-10 -36.5q0 -20 10.5 -35t24.5 -15t25 15t11 35zM511 156q0 -64 -31.5 -110t-76.5 -46t-77.5 46.5
t-32.5 109.5q0 64 32 109t78 45q45 0 76.5 -45t31.5 -109zM437 156q0 21 -10 36t-24 15q-15 0 -25.5 -15t-10.5 -36q0 -22 10 -36t26 -14q14 0 24 14t10 36zM186 1h-83l248 566h82zM654 411q0 -64 -31.5 -110t-76.5 -46t-77.5 46.5t-32.5 109.5q0 64 32 109t78 45
q45 0 76.5 -45t31.5 -109zM580 411q0 21 -10 36t-24 15q-15 0 -25.5 -15t-10.5 -36q0 -22 10 -36t26 -14q14 0 24 14t10 36z" />
    <glyph glyph-name="guilsinglleft" unicode="&#x2039;" horiz-adv-x="238" 
d="M214 240l-67 -47l-123 172l123 172l67 -47l-89 -125z" />
    <glyph glyph-name="guilsinglright" unicode="&#x203a;" horiz-adv-x="238" 
d="M24 240l89 125l-89 125l67 47l123 -172l-123 -172z" />
    <glyph glyph-name="Euro" unicode="&#x20ac;" horiz-adv-x="464" 
d="M440 1q-138 0 -233.5 76t-126.5 211h-56l21 82h26v17h-44l21 82h32q30 135 125.5 211t233.5 76l-33 -125q-72 -8 -125 -50.5t-75 -111.5h158l-22 -82h-151v-17h147l-21 -82h-111q27 -79 89 -121.5t145 -42.5v-123z" />
    <glyph glyph-name="trademark" unicode="&#x2122;" horiz-adv-x="424" 
d="M146 705h-30v-322h-62v322h-30v62h122v-62zM400 383h-62v293q0 15 -11 26q-11 -13 -11 -26v-293h-62v293q0 15 -11 26q-11 -13 -11 -26v-293h-62v293q0 61 73 99q30 -18 42 -29q15 13 42 29q73 -38 73 -99v-293z" />
    <glyph glyph-name="minus" unicode="&#x2212;" horiz-adv-x="318" 
d="M294 271v-123h-270v123h270z" />
    </font>
</defs>
</svg>
